Hudson & Rex T8 [AMZN WEB-DL][1080p][CASTELLANO][3,5Gbs][01/16][MEGA]


[url=https://postimg.cc/WFDp7zfF][img]https://i.postimg.cc/769CwT3V/s8.png[/img][/url]



Ficha Técnica

TÍTULO: Hudson & Rex
TÍTULO ORIGINAL: Hudson & Rex
TEMPORADA: 8
CAPÍTULOS: 16
AÑO: 2019
DURACIÓN: Aproximadamente 45 minutos por episodio
PAÍS: Canadá
CREADORES/ADAPTACIÓN: Basada en la serie austriaca-italiana Kommissar Rex (Inspector Rex)
REPARTO PRINCIPAL: John Reardon, Luke Roberts, Mayko Nguyen, Kevin Hanchard, Justin Kelly
COMPAÑÍAS: Shaftesbury Films, Citytv, distribuida internacionalmente
GÉNERO: Serie de TV. Intriga | Policíaco. Perros/Lobos
RATING APROXIMADO: Alrededor de 7.3/10 en IMDb



Sinopsis


El detective Charlie Hudson (luego Mark Hudson) del Departamento de Policía de St. John's (Terranova, Canadá) forma equipo con Rex, un extraordinario pastor alemán ex-K9 con sentidos agudos, para resolver crímenes complejos. La serie combina investigación policial tradicional con las habilidades únicas de Rex (olfato, rastreo, acción), en casos semanales que van desde secuestros y asesinatos hasta conspiraciones mayores. Es una adaptación moderna y ligera de la clásica Inspector Rex, con énfasis en la química entre humano y perro.




Datos Del Ripeo

Ripeo Por: MattDrayton
Fuente del audio: AMZN
Versión: AMZN WEB-DL 1080p (Sin Logos ni publicidad)
Servidores: Mega






Datos del Video
Formato: Matroska
Video: High@L4 | 1920x960 @ 6 266 kb/s
Framerate: 25.000
Resolución: 1920x1080
Audio: Castellano AC3 256Kbps 2 canales
Subtitulos: SI




[SPOILER]

MediaInfo:

Video
ID : 1
Format : AVC
Format/Info : Advanced Video Codec
Format profile : High@L4
Format settings : CABAC / 4 Ref Frames
Format settings, CABAC : Yes
Format settings, Reference : 4 frames
Codec ID : V_MPEG4/ISO/AVC
Duration : 43 min 49 s
Bit rate mode : Constant
Bit rate : 6 151 kb/s
Nominal bit rate : 10 000 kb/s
Width : 1 920 pixels
Height : 960 pixels
Display aspect ratio : 2.000
Frame rate mode : Constant
Frame rate : 23.976 (24000/1001) FPS
Color space : YUV
Chroma subsampling : 4:2:0
Bit depth : 8 bits
Scan type : Progressive
Bits/(Pixel*Frame) : 0.139
Stream size : 1.88 GiB (91%)
Default : Yes
Forced : No
Color range : Limited
Color primaries : BT.709
Transfer characteristics : BT.709
Matrix coefficients : BT.709




Audio
Format : AC-3
Format/Info : Audio Coding 3
Commercial name : Dolby Digital
Bit rate mode : Constant
Bit rate : 256 kb/s
Channel(s) : 2 channels
Channel layout : L R
Sampling rate : 48.0 kHz
Frame rate : 31.250 FPS (1536 SPF)
Compression mode : Lossy
Stream size : 80.7 MiB (100%)
Service kind : Complete Main


[/SPOILER]



[Hide][code]

3x01 Hacia lo salvaje

Proximamente...

3x02 Testigo a la fuga

Proximamente...

3x02 El mejor tipo

Proximamente...

3x04 De todos los bares (o De todos los gin joints)

Proximamente...

3x05 Fortaleza Newfoundland

Proximamente...

3x06 Teoría de la conspiración

Proximamente...

3x07 Rex criminal

Proximamente...

3x08 Vista desde el aire

Proximamente...

3x09 Todos los movimientos equivocados

Proximamente...

3x10 Asesinato al fresco

Proximamente...

3x11 Prueba de fuego

Proximamente...

3x12 El profundo salado

Proximamente...

3x13 Golpe para las fiestas (Parte 1)

Proximamente...

3x14 Golpe para las fiestas (Parte 2)

Proximamente...

3x15 

Proximamente...

3x16

Proximamente...

[/code][/Hide]